<?xml version="1.0" standalone="no"?>
<!DOCTYPE svg PUBLIC "-//W3C//DTD SVG 20010904//EN"
 "http://www.w3.org/TR/2001/REC-SVG-20010904/DTD/svg10.dtd">
<svg version="1.0" xmlns="http://www.w3.org/2000/svg"
 width="954.000000pt" height="439.000000pt" viewBox="0 0 954.000000 439.000000"
 preserveAspectRatio="xMidYMid meet">

<g transform="translate(0.000000,439.000000) scale(0.100000,-0.100000)"
fill="#000000" stroke="none">
<path d="M8190 4330 c-126 -12 -292 -36 -419 -61 -94 -19 -116 -20 -235 -10
-683 57 -1839 83 -2321 52 -786 -50 -1402 -176 -1635 -335 -25 -17 -47 -30
-50 -30 -5 1 -136 -87 -265 -177 -128 -90 -626 -475 -724 -559 -19 -17 -36
-30 -38 -30 -2 0 -37 -28 -79 -62 l-76 -61 -277 -69 c-152 -38 -287 -71 -301
-73 -14 -3 -81 -21 -150 -41 -69 -19 -170 -47 -225 -63 -55 -15 -116 -35 -135
-43 -19 -9 -48 -19 -63 -22 -49 -11 -258 -96 -362 -146 -230 -113 -335 -188
-415 -295 -8 -12 -2 -9 15 7 108 96 332 168 524 168 87 0 109 -3 136 -20 41
-25 46 -37 52 -130 6 -89 -12 -142 -56 -164 -16 -9 -31 -13 -33 -10 -10 9
-283 -16 -343 -32 -111 -29 -179 -70 -262 -158 -42 -44 -88 -89 -102 -98 -32
-22 -99 -23 -162 -4 l-47 14 -11 -41 c-58 -222 -91 -646 -67 -857 21 -181 41
-227 136 -313 91 -82 173 -109 568 -186 74 -15 88 -21 123 -56 22 -21 51 -59
66 -84 36 -62 94 -122 140 -146 21 -11 40 -22 43 -25 15 -16 114 -61 175 -80
49 -16 106 -24 191 -27 178 -8 301 18 444 94 64 35 160 102 160 113 0 3 25 32
56 65 60 65 134 169 134 190 0 8 20 15 53 20 28 4 59 8 67 10 182 39 695 78
1435 110 1515 64 2926 71 3200 15 22 -4 119 -25 216 -47 l176 -38 37 -62 c49
-84 130 -189 185 -241 188 -178 490 -251 761 -186 179 44 358 163 473 316 29
37 43 46 87 54 147 28 250 79 295 147 14 22 16 39 11 83 -5 41 -2 62 10 86 9
17 19 67 23 112 9 89 9 91 75 190 26 38 44 71 41 74 -2 3 -1 10 4 16 14 17 39
161 46 261 3 50 1 158 -5 240 -12 169 -49 445 -60 445 -4 0 -20 -16 -34 -35
-15 -19 -31 -35 -36 -35 -8 0 -40 87 -60 170 -21 85 -73 215 -103 260 -51 76
-145 152 -204 165 -10 2 -36 11 -58 19 -22 8 -75 17 -118 21 l-79 8 4 31 c5
35 51 259 55 265 3 5 326 -30 337 -36 16 -10 2 15 -38 69 -22 29 -71 80 -110
114 -73 62 -149 155 -211 259 -47 77 -52 86 -102 167 -24 38 -43 71 -43 75 0
23 -173 273 -237 340 -38 42 -55 71 -48 83 4 6 37 31 75 56 81 53 142 119 138
148 -7 50 -167 74 -368 56z m-3270 -177 c0 -27 -11 -397 -25 -823 -14 -426
-25 -784 -25 -794 0 -20 0 -20 18 0 9 10 53 64 96 119 44 55 110 137 148 181
37 45 68 86 68 92 0 6 6 15 13 19 7 4 26 26 42 48 17 22 32 42 35 45 10 9 165
202 205 255 22 29 78 101 125 160 47 59 113 144 148 189 35 44 74 95 87 111
14 17 70 89 125 160 112 145 123 159 179 231 l39 51 274 -5 c150 -2 275 -6
277 -8 1 -1 -18 -74 -44 -161 -26 -87 -62 -210 -80 -273 -18 -63 -50 -169 -70
-235 -41 -135 -122 -405 -189 -630 -24 -82 -72 -244 -107 -360 -34 -115 -63
-217 -64 -225 0 -9 -4 -20 -7 -25 -3 -6 -27 -82 -53 -170 -25 -88 -59 -203
-75 -255 -64 -209 -170 -570 -174 -592 -2 -13 -9 -34 -15 -48 -6 -14 -27 -79
-46 -145 -53 -186 -74 -257 -78 -262 -8 -7 -777 -8 -777 0 0 4 30 105 66 225
36 119 79 260 94 312 15 52 40 136 55 185 15 50 44 149 66 220 21 72 47 158
58 193 10 34 18 62 16 62 -3 0 -74 -86 -103 -125 -4 -5 -18 -24 -32 -42 -14
-17 -36 -46 -50 -64 -14 -18 -57 -72 -97 -120 -39 -48 -70 -90 -67 -93 2 -3 1
-4 -2 -2 -8 6 -54 -48 -54 -62 0 -6 -6 -15 -13 -19 -12 -8 -33 -33 -87 -104
-14 -18 -57 -72 -97 -120 -39 -48 -70 -90 -67 -93 2 -3 1 -4 -2 -2 -7 5 -54
-47 -54 -60 0 -5 -16 -25 -35 -44 -19 -19 -35 -37 -35 -40 0 -4 -9 -17 -20
-30 -11 -13 -46 -56 -78 -97 -31 -40 -62 -73 -68 -73 -15 0 -6 -38 -109 479
l-87 435 37 125 c21 70 53 178 72 241 19 63 50 169 69 235 18 66 39 138 46
160 7 22 13 42 14 45 0 3 3 12 7 20 3 8 17 56 32 105 25 86 65 220 105 350 10
33 35 116 55 185 20 69 52 175 70 235 19 61 36 121 39 135 2 14 10 39 16 55 7
17 27 82 45 145 19 63 53 178 75 255 23 77 45 150 47 163 9 39 23 24 23 -25z
m2405 7 c182 -6 335 -13 341 -15 11 -3 -36 -174 -141 -510 -19 -60 -36 -122
-39 -137 -2 -15 -7 -32 -10 -36 -5 -8 -156 -505 -160 -527 -1 -5 -17 -57 -35
-115 -72 -233 -200 -659 -205 -680 -2 -8 -6 -22 -9 -30 -7 -17 -19 -56 -107
-350 -34 -113 -75 -250 -92 -305 -17 -55 -32 -107 -32 -115 -1 -9 -5 -20 -8
-25 -4 -8 -100 -322 -153 -505 -4 -13 -55 -15 -391 -13 -213 2 -388 4 -390 6
-2 2 5 30 16 62 11 32 18 61 15 63 -3 3 -1 10 4 16 5 6 46 135 91 286 44 151
94 318 110 371 17 53 31 105 33 115 1 10 5 24 9 29 3 6 20 60 38 120 18 61 49
166 70 235 46 150 121 408 124 424 1 6 4 16 8 21 3 6 27 82 52 170 26 88 60
203 76 255 46 152 101 338 104 352 2 7 6 20 9 28 3 8 20 62 37 120 17 58 44
148 60 200 38 124 132 442 134 455 1 6 7 20 14 32 11 19 19 22 55 18 23 -3
191 -9 372 -15z m-2538 -27 c-3 -10 -12 -40 -21 -68 -8 -27 -67 -216 -130
-418 -64 -203 -118 -376 -119 -385 -1 -9 -5 -22 -9 -27 -6 -9 -108 -334 -143
-455 -8 -25 -66 -211 -129 -413 -64 -203 -118 -376 -120 -385 -1 -9 -6 -24
-10 -32 -6 -15 -118 -370 -141 -450 -12 -42 -195 -626 -212 -679 -6 -18 -16
-24 -43 -27 -127 -11 -409 -37 -539 -49 -85 -8 -169 -15 -187 -15 l-32 0 19
63 c11 34 26 85 34 112 7 28 32 111 55 185 126 409 184 603 205 675 13 44 38
125 55 180 17 55 43 138 57 185 13 47 35 118 49 159 13 41 22 77 19 79 -3 3
-1 10 4 16 5 6 35 97 66 201 32 105 77 253 101 330 23 77 66 217 94 310 28 94
66 220 84 280 34 110 71 231 122 400 15 50 30 93 33 97 4 4 112 26 241 49 129
22 307 53 395 69 199 35 209 35 202 13z m3255 -73 c159 -32 206 -45 216 -60 8
-10 21 -28 30 -38 10 -11 28 -34 42 -52 14 -18 61 -79 105 -134 44 -56 85
-108 90 -117 6 -9 37 -54 69 -100 33 -46 89 -127 125 -179 36 -52 68 -96 72
-98 9 -4 7 -11 -78 -297 -42 -137 -86 -286 -99 -330 -45 -156 -51 -169 -80
-190 -16 -11 -58 -43 -94 -70 -36 -28 -76 -58 -90 -67 -14 -9 -38 -28 -55 -41
l-30 -25 21 -24 c11 -12 42 -56 68 -95 26 -40 51 -73 55 -73 16 0 10 -73 -13
-146 -43 -140 -75 -248 -84 -284 l-8 -35 -98 -7 c-186 -13 -332 -76 -454 -197
-43 -42 -90 -92 -103 -111 -28 -39 -87 -156 -92 -186 -2 -11 -7 -26 -10 -34
-16 -38 -27 -112 -27 -190 l0 -85 -347 3 c-191 1 -349 5 -351 7 -3 2 7 42 21
87 14 46 28 95 31 110 2 15 7 31 10 36 3 5 35 107 71 228 36 120 70 237 77
259 7 22 17 43 23 48 5 4 93 7 194 6 l185 -1 51 37 c47 35 52 42 72 113 18 65
19 77 7 89 -8 8 -19 23 -24 34 -10 18 -23 19 -200 19 -104 0 -191 4 -194 9 -4
6 51 201 123 436 51 166 82 267 90 300 l10 40 189 -3 188 -3 55 40 c53 38 57
44 79 117 12 42 18 79 13 83 -4 3 -16 18 -26 34 l-17 27 -189 0 c-103 0 -190
2 -193 5 -3 3 7 46 23 96 16 49 30 97 32 107 1 9 5 22 8 27 6 10 107 334 130
415 57 206 154 500 166 500 7 0 104 -18 215 -40z m-4287 -192 c-13 -46 -28
-96 -33 -113 -6 -16 -26 -82 -46 -145 -19 -63 -86 -284 -150 -490 -63 -206
-119 -391 -124 -410 -6 -19 -24 -80 -41 -134 -17 -54 -33 -109 -35 -122 -3
-13 -7 -28 -11 -33 -6 -11 -154 -497 -158 -521 -1 -8 -5 -19 -9 -25 -3 -5 -36
-109 -72 -230 -37 -121 -80 -258 -95 -305 l-28 -85 -94 -73 c-52 -40 -125 -97
-164 -127 -38 -29 -128 -99 -200 -154 -71 -56 -133 -101 -137 -101 -5 0 -8 35
-8 78 0 137 -48 278 -131 382 -46 58 -150 158 -204 198 -40 28 -203 122 -212
122 -3 0 -24 9 -47 19 -23 11 -49 22 -58 25 -27 8 -22 29 5 23 26 -7 346 -53
434 -63 61 -6 63 -6 113 32 38 29 53 48 61 79 6 22 28 96 49 165 44 144 121
407 124 424 1 6 4 16 8 21 3 6 29 87 56 180 27 94 72 244 100 335 43 143 68
227 77 265 1 6 7 23 13 38 7 16 12 35 12 43 0 8 12 26 27 40 30 27 238 185
264 200 9 5 34 24 55 42 49 41 220 169 256 191 14 9 44 31 65 49 21 18 90 70
153 117 63 46 132 98 154 114 21 17 42 31 46 31 5 0 -2 -37 -15 -82z m4695
-2388 c93 -32 130 -50 171 -82 20 -15 40 -28 45 -28 27 0 194 -212 200 -254 1
-6 11 -42 23 -81 17 -52 22 -95 22 -166 0 -193 -53 -318 -197 -465 -37 -38
-64 -63 -59 -55 4 7 -6 3 -24 -10 -17 -12 -31 -26 -31 -31 0 -4 -3 -7 -7 -6
-5 1 -26 -7 -48 -17 -22 -10 -42 -19 -45 -20 -3 0 -30 -10 -60 -20 -44 -16
-81 -20 -185 -20 -131 0 -199 6 -212 18 -3 4 -14 7 -23 7 -23 0 -166 76 -213
113 -72 56 -127 122 -164 197 -21 41 -41 77 -46 78 -4 2 -5 7 -3 11 3 4 -2 30
-10 57 -8 27 -17 90 -21 139 -5 74 -2 104 15 166 46 168 133 291 269 381 142
94 234 119 413 114 97 -3 140 -8 190 -26z m-6715 -14 c132 -36 238 -96 326
-186 49 -51 130 -167 135 -195 1 -5 10 -30 20 -55 13 -33 18 -80 20 -180 3
-122 0 -141 -22 -205 -81 -225 -275 -394 -502 -436 -96 -18 -284 -6 -371 25
-204 71 -372 248 -422 445 -34 134 -18 335 36 441 23 46 98 150 127 176 145
132 333 199 523 188 45 -3 103 -11 130 -18z"/>
<path d="M8092 1445 c-35 -8 -99 -32 -143 -54 -81 -41 -202 -137 -193 -153 3
-4 0 -8 -6 -8 -15 0 -74 -96 -98 -162 -12 -32 -19 -58 -16 -58 4 0 1 -7 -6
-15 -17 -21 -25 -189 -11 -245 7 -25 14 -54 16 -65 8 -34 66 -145 76 -145 5 0
9 -7 9 -15 0 -16 87 -108 140 -148 101 -74 233 -117 363 -117 139 0 245 29
357 99 62 39 193 168 184 182 -3 5 -1 9 4 9 7 0 29 36 37 60 1 3 10 23 20 45
10 22 25 81 33 131 14 82 14 98 0 172 -46 232 -232 427 -464 486 -75 19 -215
20 -302 1z m196 -538 c16 -19 18 -73 4 -90 -7 -8 -27 -17 -44 -19 -59 -9 -100
61 -61 104 19 21 85 25 101 5z"/>
<path d="M1402 1421 c-116 -34 -191 -79 -282 -171 -129 -128 -180 -244 -180
-410 0 -254 158 -480 400 -569 155 -57 367 -49 490 19 14 8 27 15 30 15 20 5
60 30 60 38 0 6 3 7 6 4 9 -9 95 70 143 131 93 118 136 250 128 397 -7 147
-62 267 -169 377 -71 71 -140 116 -238 153 -65 24 -92 28 -200 31 -100 3 -138
0 -188 -15z m208 -541 c11 -11 20 -31 20 -45 0 -14 -9 -34 -20 -45 -11 -11
-31 -20 -45 -20 -14 0 -34 9 -45 20 -11 11 -20 31 -20 45 0 14 9 34 20 45 11
11 31 20 45 20 14 0 34 -9 45 -20z m-489 -457 c13 -16 12 -17 -3 -4 -10 7 -18
15 -18 17 0 8 8 3 21 -13z"/>
</g>
</svg>
