<?xml version="1.0" standalone="no"?>
<!DOCTYPE svg PUBLIC "-//W3C//DTD SVG 20010904//EN"
 "http://www.w3.org/TR/2001/REC-SVG-20010904/DTD/svg10.dtd">
<svg version="1.0" xmlns="http://www.w3.org/2000/svg"
 width="192.000000pt" height="192.000000pt" viewBox="0 0 192.000000 192.000000"
 preserveAspectRatio="xMidYMid meet">

<g transform="translate(0.000000,192.000000) scale(0.100000,-0.100000)"
fill="#000000" stroke="none">
<path d="M920 1757 c-170 -157 -371 -294 -588 -403 l-144 -72 34 -24 c18 -14
191 -137 383 -273 193 -136 358 -254 368 -263 22 -19 24 -67 2 -58 -9 3 -60
37 -113 74 -141 100 -133 97 -252 96 -145 -1 -285 -42 -395 -117 l-37 -25 334
-225 c183 -123 366 -246 406 -272 62 -42 72 -52 72 -77 0 -29 1 -29 78 43 170
159 378 309 555 400 53 27 97 52 97 54 0 2 -166 126 -370 276 -341 251 -370
275 -370 302 0 37 6 35 117 -46 110 -81 134 -93 210 -106 74 -14 163 -2 258
34 70 26 147 68 164 89 9 11 -69 73 -368 296 -352 263 -380 286 -383 316 l-3
32 -55 -51z m-36 -384 c50 -36 94 -71 98 -77 11 -16 10 -56 -2 -56 -5 0 -59
37 -120 82 -105 77 -109 82 -94 100 10 10 19 18 22 18 2 0 45 -30 96 -67z
m217 -810 c85 -60 106 -80 97 -90 -18 -22 -37 -15 -129 49 -77 53 -89 65 -89
90 0 15 3 28 6 28 3 0 55 -35 115 -77z"/>
</g>
</svg>
